<svg fill="#000000" xmlns="http://www.w3.org/2000/svg" viewBox="0 0 50 50" width="50px" height="50px"><path fill="none" d="M2 2H48V48H2z"/><path fill="none" stroke="#000000" stroke-linecap="round" stroke-miterlimit="10" stroke-width="2" d="M25 2.9200000000000017A22.08 22.08 0 1 0 25 47.08A22.08 22.08 0 1 0 25 2.9200000000000017Z"/><path fill="none" stroke="#000000" stroke-linecap="round" stroke-miterlimit="10" stroke-width="2" d="M25 2.9200000000000017A11.04 22.08 0 1 0 25 47.08A11.04 22.08 0 1 0 25 2.9200000000000017Z"/><path fill="none" stroke="#000000" stroke-miterlimit="10" stroke-width="2" d="M7.888 39.048C11.936 36.564 18.1 35 25 35c6.808 0 12.88 1.564 17.02 3.956M42.112 10.952C38.064 13.436 31.9 15 25 15c-6.808 0-12.88-1.564-17.02-3.956M2.92 25L47.08 25M25 2.92L25 47.08"/></svg>